<?xml version="1.0" encoding="UTF-8"?>
<svg id="Calque_2" data-name="Calque 2" xmlns="http://www.w3.org/2000/svg" viewBox="0 0 15 15">
  <defs>
    <style>
      .cls-1 {
        isolation: isolate;
      }

      .cls-1, .cls-2 {
        fill: #8b60ba;
      }
    </style>
  </defs>
  <g id="Calque_1-2" data-name="Calque 1">
    <g>
      <path class="cls-2" d="M7.5,15c-1.17,0-2.3-.26-3.34-.78-.14-.07-.3-.09-.43-.06l-1.55.42c-.5.13-1.02,0-1.38-.37-.37-.37-.5-.88-.37-1.38l.42-1.55c.04-.13.02-.29-.06-.43-.52-1.04-.78-2.17-.78-3.34,0-1.01.2-1.99.59-2.92.38-.89.92-1.7,1.61-2.38.69-.69,1.49-1.23,2.38-1.61.92-.39,1.91-.59,2.92-.59s1.99.2,2.92.59c.89.38,1.7.92,2.38,1.61.69.69,1.23,1.49,1.61,2.38.39.92.59,1.91.59,2.92s-.2,1.99-.59,2.92c-.38.89-.92,1.7-1.61,2.38-.69.69-1.49,1.23-2.38,1.61-.92.39-1.91.59-2.92.59ZM3.86,13.1c.26,0,.52.06.76.18.9.45,1.86.67,2.87.67,3.56,0,6.45-2.9,6.45-6.45S11.06,1.05,7.5,1.05,1.05,3.94,1.05,7.5c0,1.01.23,1.98.67,2.87.19.37.23.79.13,1.17l-.42,1.55c-.05.19.05.32.1.37.05.05.18.15.37.1l1.55-.42c.13-.04.27-.05.41-.05Z"/>
      <path class="cls-1" d="M10.29,6.98h-5.58c-.29,0-.52-.23-.52-.52s.23-.52.52-.52h5.58c.29,0,.52.23.52.52s-.23.52-.52.52Z"/>
      <path class="cls-1" d="M8.55,9.42h-3.84c-.29,0-.52-.23-.52-.52s.23-.52.52-.52h3.84c.29,0,.52.23.52.52s-.23.52-.52.52Z"/>
    </g>
  </g>
</svg>