<?xml version="1.0" encoding="UTF-8"?>
<svg id="Calque_2" data-name="Calque 2" xmlns="http://www.w3.org/2000/svg" viewBox="0 0 40.5 40.5">
  <defs>
    <style>
      .cls-1 {
        fill: #8b60ba;
        fill-rule: evenodd;
      }

      .cls-2 {
        fill: none;
        stroke: #8b60ba;
        stroke-miterlimit: 10;
        stroke-width: .5px;
      }
    </style>
  </defs>
  <g id="Calque_1-2" data-name="Calque 1">
    <g>
      <path class="cls-1" d="M8.25,14.25c0-3.31,2.69-6,6-6h12c3.31,0,6,2.69,6,6v12c0,3.31-2.69,6-6,6h-12c-3.31,0-6-2.69-6-6v-12ZM14.25,10.65c-1.99,0-3.6,1.61-3.6,3.6v12c0,1.99,1.61,3.6,3.6,3.6h12c1.99,0,3.6-1.61,3.6-3.6v-12c0-1.99-1.61-3.6-3.6-3.6h-12ZM14.25,26.25c0-.66.54-1.2,1.2-1.2h9.6c.66,0,1.2.54,1.2,1.2s-.54,1.2-1.2,1.2h-9.6c-.66,0-1.2-.54-1.2-1.2ZM16.3,14.6c-.47-.47-1.23-.47-1.7,0s-.47,1.23,0,1.7l2.75,2.75-2.75,2.75c-.47.47-.47,1.23,0,1.7s1.23.47,1.7,0l3.6-3.6c.23-.22.35-.53.35-.85s-.13-.62-.35-.85l-3.6-3.6Z"/>
      <rect class="cls-2" x=".25" y=".25" width="40" height="40" rx="5" ry="5"/>
    </g>
  </g>
</svg>